<svg width="24" height="24" viewBox="0 0 55 52" fill="none" xmlns="http://www.w3.org/2000/svg">
<path d="M14.9201 28.5C14.1201 29.88 13.3501 31.21 12.5901 32.5C11.3201 34.68 10.0801 36.88 8.79005 39.05C8.24284 39.8854 7.8881 40.8319 7.75148 41.8211C7.61485 42.8104 7.69976 43.8176 8.00005 44.77C8.01113 44.8463 8.01113 44.9237 8.00005 45C7.86005 44.78 7.76005 44.64 7.68005 44.49C5.36005 40.49 3.05005 36.49 0.680051 32.49C0.192376 31.7381 -0.0671387 30.8612 -0.0671387 29.965C-0.0671387 29.0688 0.192376 28.1919 0.680051 27.44C1.68005 25.7 2.68005 23.94 3.76005 22.13C2.76005 21.58 1.87005 21.06 0.960051 20.51C0.716017 20.2969 0.494825 20.0589 0.300051 19.8C0.593562 19.6749 0.898252 19.5778 1.21005 19.51C3.88344 19.1055 6.58701 18.9348 9.29005 19C10.0101 19 10.7301 19.16 11.4401 19.26C12.0778 19.4141 12.6754 19.7025 13.1927 20.1061C13.7101 20.5096 14.1353 21.0189 14.4401 21.6C16.1211 24.1906 17.5286 26.9487 18.6401 29.83C18.6654 30.0125 18.6654 30.1975 18.6401 30.38C18.4398 30.3825 18.2405 30.3521 18.0501 30.29C17.0501 29.74 16.0001 29.13 14.9201 28.5Z" fill="#F0F8EE"/>
<path d="M36.23 35H36.93C40.66 35 44.38 35 48.11 35C49.184 35.072 50.2607 34.9079 51.2645 34.5192C52.2682 34.1304 53.1747 33.5266 53.92 32.75C53.8761 32.8627 53.826 32.9728 53.77 33.08L46.66 45.43C46.2551 46.1813 45.6458 46.8025 44.9025 47.2219C44.1593 47.6413 43.3124 47.8418 42.46 47.8H36.23C36.23 48.99 36.23 50.12 36.23 51.24C36.183 51.5014 36.1058 51.7564 36 52C35.7844 51.8688 35.5861 51.7109 35.41 51.53C33.5788 49.2432 31.9777 46.7813 30.63 44.18C30.3894 43.6184 30.1791 43.0442 30 42.46C29.8372 41.8519 29.8039 41.2164 29.9021 40.5945C30.0002 39.9727 30.2278 39.3784 30.57 38.85C31.955 36.0923 33.6312 33.4908 35.57 31.09C35.7074 30.9674 35.8625 30.8663 36.03 30.79C36.1328 30.9591 36.204 31.1454 36.24 31.34C36.24 32.54 36.23 33.74 36.23 35Z" fill="#F0F8EE"/>
<path d="M35.07 0C34.1866 0.359653 33.3422 0.808653 32.55 1.34C31.7848 1.96004 31.1407 2.71605 30.65 3.57C28.29 7.57 26.01 11.57 23.65 15.57C23.1776 16.488 22.4441 17.2456 21.5419 17.7474C20.6397 18.2493 19.6091 18.4728 18.58 18.39C18.2103 18.386 17.8443 18.3149 17.5 18.18C15.6 17.35 13.63 16.58 12.5 14.69C12.0076 13.9575 11.7257 13.1039 11.6851 12.2222C11.6446 11.3405 11.8469 10.4646 12.27 9.69C13.67 7.1 15.17 4.56 16.71 2.05C17.1161 1.40454 17.6869 0.878982 18.3636 0.527447C19.0403 0.175912 19.7985 0.0111056 20.56 0.05L35.07 0Z" fill="#F0F8EE"/>
<path d="M43 7.81001C44.29 7.16001 45.41 6.32001 46.84 5.72001C46.8221 5.97633 46.7819 6.23061 46.72 6.48001C45.6456 9.23026 44.306 11.8694 42.72 14.36C42.37 14.88 41.96 15.36 41.56 15.86C41.1292 16.308 40.6096 16.6613 40.0345 16.8972C39.4594 17.1331 38.8414 17.2464 38.22 17.23C35.0996 17.4104 31.9687 17.2595 28.88 16.78C28.6905 16.7206 28.514 16.6256 28.36 16.5C28.472 16.3353 28.6067 16.1872 28.76 16.06L31.44 14.55C31.59 14.47 31.73 14.37 31.9 14.27L31.65 13.78C30.81 12.33 29.98 10.88 29.13 9.43001C29.0551 9.32493 29.0148 9.19907 29.0148 9.07001C29.0148 8.94094 29.0551 8.81509 29.13 8.71001C30.08 7.14001 31 5.56001 31.89 4.00001C32.3178 3.17584 32.9637 2.48498 33.7572 2.00278C34.5508 1.52059 35.4615 1.26558 36.39 1.26558C37.3186 1.26558 38.2293 1.52059 39.0229 2.00278C39.8164 2.48498 40.4623 3.17584 40.89 4.00001C41.58 5.27001 42.29 6.53001 43 7.81001Z" fill="#F0F8EE"/>
<path d="M16.8801 35.14H20.2701C21.629 35.1181 22.9425 35.6291 23.9294 36.5636C24.9162 37.4981 25.498 38.7819 25.5501 40.14C25.7146 41.4754 25.6435 42.8292 25.3401 44.14C25.0374 45.2007 24.4035 46.1368 23.5309 46.8114C22.6583 47.4861 21.5928 47.8641 20.4901 47.89C18.3201 47.95 16.1401 47.97 13.9801 47.89C13.0855 47.8985 12.2051 47.6669 11.4305 47.2193C10.656 46.7717 10.0157 46.1244 9.57648 45.3451C9.13726 44.5657 8.91519 43.6828 8.93341 42.7884C8.95164 41.894 9.20949 41.0208 9.68009 40.26C10.5801 38.62 11.5401 37.02 12.4901 35.41C12.5511 35.3243 12.6302 35.253 12.7218 35.2012C12.8134 35.1494 12.9152 35.1182 13.0201 35.11C14.3001 35.13 15.5901 35.14 16.8801 35.14Z" fill="#F0F8EE"/>
<path d="M46.4 33.65H43.54C43.411 33.6692 43.2793 33.6465 43.1641 33.5854C43.0489 33.5242 42.9563 33.4277 42.9 33.31C41.71 31.21 40.47 29.14 39.29 27.03C38.9349 26.4261 38.7048 25.757 38.6133 25.0624C38.5218 24.3678 38.5707 23.6619 38.7573 22.9866C38.9438 22.3113 39.2642 21.6804 39.6992 21.1313C40.1343 20.5821 40.6753 20.126 41.29 19.79C42.3259 19.0513 43.4739 18.484 44.69 18.11C45.7108 17.8699 46.7805 17.9471 47.7562 18.3313C48.7319 18.7155 49.5671 19.3884 50.15 20.26C51.39 22.26 52.58 24.26 53.66 26.35C54.0459 27.1025 54.2347 27.9406 54.2086 28.7859C54.1825 29.6311 53.9425 30.456 53.5109 31.1833C53.0793 31.9105 52.4704 32.5165 51.7409 32.9444C51.0115 33.3723 50.1854 33.6082 49.34 33.63C48.34 33.63 47.4 33.63 46.43 33.63L46.4 33.65Z" fill="#F0F8EE"/>
</svg>
